<svg width="29" height="25" viewBox="0 0 29 25" fill="none" xmlns="http://www.w3.org/2000/svg">
<path d="M15.9994 12.9973V19.9973C15.9994 20.2625 15.8941 20.5169 15.7065 20.7044C15.519 20.892 15.2646 20.9973 14.9994 20.9973C14.7342 20.9973 14.4799 20.892 14.2923 20.7044C14.1048 20.5169 13.9994 20.2625 13.9994 19.9973V12.9973C13.9994 12.7321 14.1048 12.4777 14.2923 12.2902C14.4799 12.1027 14.7342 11.9973 14.9994 11.9973C15.2646 11.9973 15.519 12.1027 15.7065 12.2902C15.8941 12.4777 15.9994 12.7321 15.9994 12.9973ZM28.9819 10.2611L27.2494 23.2623C27.1852 23.7428 26.9486 24.1836 26.5837 24.5028C26.2188 24.8219 25.7505 24.9976 25.2657 24.9973H4.73318C4.24841 24.9976 3.78002 24.8219 3.41512 24.5028C3.05023 24.1836 2.81366 23.7428 2.74943 23.2623L1.01568 10.2623C0.9779 9.97968 1.00099 9.69224 1.0834 9.41927C1.16581 9.1463 1.30564 8.8941 1.49351 8.6796C1.68138 8.46509 1.91294 8.29324 2.17267 8.17557C2.4324 8.05789 2.71429 7.99711 2.99943 7.99731H7.54568L14.2494 0.338562C14.3433 0.232155 14.4587 0.146935 14.588 0.088562C14.7173 0.0301891 14.8576 0 14.9994 0C15.1413 0 15.2816 0.0301891 15.4109 0.088562C15.5402 0.146935 15.6556 0.232155 15.7494 0.338562L22.4532 7.99731H26.9994C27.2842 7.99749 27.5657 8.05851 27.8251 8.17626C28.0844 8.29402 28.3156 8.46581 28.5031 8.68013C28.6907 8.89445 28.8304 9.14636 28.9127 9.419C28.9951 9.69165 29.0182 9.97874 28.9807 10.2611H28.9819ZM10.2032 7.99731H19.7957L14.9994 2.51606L10.2032 7.99731ZM26.9994 9.99731H2.99943L4.73318 22.9973H25.2657L26.9994 9.99731ZM20.6044 12.8973L19.9044 19.8973C19.8906 20.0284 19.9028 20.1609 19.9404 20.2872C19.9779 20.4135 20.0401 20.5312 20.1232 20.6334C20.2064 20.7356 20.309 20.8204 20.425 20.8828C20.5411 20.9453 20.6683 20.9842 20.7994 20.9973C20.8332 20.9992 20.867 20.9992 20.9007 20.9973C21.1484 20.997 21.3871 20.9048 21.5707 20.7385C21.7543 20.5722 21.8697 20.3438 21.8944 20.0973L22.5944 13.0973C22.621 12.8334 22.5416 12.5698 22.3737 12.3645C22.2059 12.1591 21.9633 12.0288 21.6994 12.0023C21.4355 11.9758 21.1719 12.0552 20.9666 12.223C20.7612 12.3909 20.631 12.6334 20.6044 12.8973ZM9.39443 12.8973C9.36791 12.6334 9.23765 12.3909 9.03229 12.223C8.82694 12.0552 8.56332 11.9758 8.29943 12.0023C8.03554 12.0288 7.79299 12.1591 7.62515 12.3645C7.4573 12.5698 7.37791 12.8334 7.40443 13.0973L8.10443 20.0973C8.1293 20.3448 8.24555 20.5742 8.43045 20.7406C8.61536 20.907 8.85566 20.9986 9.10443 20.9973C9.13816 20.9992 9.17196 20.9992 9.20568 20.9973C9.33635 20.9842 9.46315 20.9454 9.57884 20.8833C9.69454 20.8212 9.79686 20.7369 9.87997 20.6352C9.96308 20.5335 10.0253 20.4164 10.0632 20.2907C10.1011 20.165 10.1138 20.033 10.1007 19.9023L9.39443 12.8973Z" fill="black"/>
</svg>
