<svg width="32" height="21" viewBox="0 0 32 21" fill="none" xmlns="http://www.w3.org/2000/svg">
<path fill-rule="evenodd" clip-rule="evenodd" d="M31.2073 16.9864C30.482 15.5257 29.5262 14.1913 28.3766 13.0344C27.9922 12.5999 27.5896 12.1818 27.17 11.7811L27.1193 11.7317C26.9635 11.5804 26.8097 11.4271 26.658 11.2717C28.2294 9.08652 29.5742 6.74689 30.6713 4.28907L30.7153 4.1904L30.746 4.0864C30.8913 3.6024 31.0566 2.6824 30.47 1.8504C29.862 0.991738 28.89 0.837071 28.238 0.837071H25.242C24.6147 0.808483 23.9944 0.979069 23.4699 1.32442C22.9454 1.66976 22.5436 2.17217 22.322 2.75974C21.6772 4.29526 20.8699 5.75736 19.914 7.12107V3.6104C19.914 3.15707 19.8713 2.39707 19.3846 1.75707C18.8033 0.989071 17.962 0.837071 17.378 0.837071H12.6233C12.0029 0.822795 11.4007 1.04769 10.9415 1.46517C10.4824 1.88265 10.2013 2.46075 10.1567 3.07974L10.1526 3.13974V3.19974C10.1526 3.8464 10.4087 4.32374 10.614 4.62374C10.706 4.7584 10.8033 4.88107 10.866 4.9584L10.8793 4.97574C10.946 5.0584 10.99 5.11307 11.034 5.1744C11.1513 5.33174 11.318 5.57707 11.366 6.20907V8.17307C10.4116 6.57483 9.62897 4.88006 9.03132 3.11707L9.02065 3.08774L9.00998 3.05974C8.84732 2.6344 8.58732 2.01574 8.06598 1.54374C7.45798 0.990405 6.73798 0.837071 6.08332 0.837071H3.04332C2.38065 0.837071 1.58198 0.991738 0.985984 1.61974C0.400651 2.2384 0.333984 2.97974 0.333984 3.37174V3.5504L0.371318 3.72374C1.21305 7.63144 2.94763 11.2914 5.43932 14.4171C6.57849 16.2135 8.12503 17.7161 9.95352 18.803C11.782 19.89 13.8409 20.5306 15.9633 20.6731L16.018 20.6771H16.074C17.042 20.6771 18.0513 20.5931 18.81 20.0877C19.8327 19.4051 19.914 18.3584 19.914 17.8357V16.3184C20.1767 16.5317 20.502 16.8171 20.9007 17.2011C21.3833 17.6837 21.7673 18.1024 22.0967 18.4677L22.2726 18.6624C22.5287 18.9477 22.7806 19.2291 23.01 19.4597C23.298 19.7491 23.654 20.0677 24.0993 20.3037C24.5833 20.5584 25.0913 20.6744 25.63 20.6744H28.6713C29.3126 20.6744 30.2313 20.5224 30.878 19.7731C31.582 18.9571 31.5286 17.9557 31.3073 17.2371L31.2673 17.1077L31.2073 16.9864ZM23.5806 17.1277C23.1674 16.6658 22.7419 16.215 22.3047 15.7757L22.3006 15.7717C20.4913 14.0277 19.6473 13.7251 19.05 13.7251C18.7313 13.7251 18.3807 13.7597 18.1527 14.0451C18.05 14.1812 17.9827 14.3406 17.9566 14.5091C17.9245 14.7047 17.9102 14.9029 17.914 15.1011V17.8357C17.914 18.1757 17.858 18.3184 17.7006 18.4224C17.4913 18.5624 17.0446 18.6757 16.086 18.6757C14.2649 18.5518 12.4993 17.9975 10.9342 17.0582C9.36915 16.119 8.04935 14.8217 7.08332 13.2731L7.07265 13.2557L7.05932 13.2397C4.73814 10.3506 3.12044 6.9614 2.33398 3.33974C2.33932 3.1664 2.37665 3.06107 2.43798 2.99707C2.50065 2.9304 2.65398 2.83707 3.04332 2.83707H6.08332C6.42065 2.83707 6.59665 2.91174 6.72332 3.02507C6.86465 3.15574 6.98998 3.37574 7.13932 3.76774C7.88598 5.96241 8.89398 8.01574 9.84998 9.52374C10.3273 10.2784 10.7967 10.9064 11.2207 11.3504C11.4327 11.5717 11.6393 11.7557 11.838 11.8864C12.0287 12.0117 12.246 12.1117 12.47 12.1117C12.5873 12.1117 12.7247 12.0984 12.8567 12.0411C12.9992 11.9781 13.1166 11.8692 13.19 11.7317C13.3273 11.4811 13.366 11.1117 13.366 10.6277V6.1304C13.2953 5.03974 12.966 4.42507 12.646 3.98907C12.5812 3.90186 12.5145 3.81607 12.446 3.73174L12.4287 3.7104C12.3718 3.64134 12.3175 3.57018 12.266 3.49707C12.2003 3.41553 12.1608 3.31609 12.1527 3.21174C12.1631 3.10579 12.2137 3.00784 12.294 2.93794C12.3743 2.86804 12.4783 2.83148 12.5847 2.83574H17.378C17.6526 2.83574 17.7446 2.9024 17.7913 2.96507C17.858 3.05174 17.914 3.23174 17.914 3.6104V9.64774C17.914 10.3651 18.2446 10.8504 18.7246 10.8504C19.2766 10.8504 19.6753 10.5157 20.3713 9.81974L20.3833 9.8064L20.394 9.7944C21.9553 7.89078 23.2309 5.76984 24.1807 3.4984L24.186 3.4824C24.2574 3.28172 24.3924 3.10989 24.5706 2.99313C24.7487 2.87637 24.9602 2.8211 25.1726 2.83574H28.2393C28.6553 2.83574 28.7913 2.9424 28.8367 3.00507C28.8833 3.07174 28.9167 3.2144 28.8367 3.4944C27.7414 5.94288 26.3875 8.26721 24.798 10.4277L24.7873 10.4437C24.634 10.6797 24.4646 10.9411 24.4406 11.2397C24.414 11.5624 24.5527 11.8544 24.7966 12.1691C24.974 12.4304 25.3407 12.7891 25.7127 13.1531L25.7473 13.1877C26.1367 13.5691 26.5593 13.9824 26.898 14.3824L26.9073 14.3917L26.9167 14.4024C27.9265 15.4097 28.7663 16.5742 29.4033 17.8504C29.5047 18.1971 29.4433 18.3757 29.3633 18.4677C29.2713 18.5744 29.0646 18.6744 28.6726 18.6744H25.63C25.4226 18.6795 25.2174 18.6313 25.034 18.5344C24.8092 18.4036 24.6052 18.2401 24.4286 18.0491C24.238 17.8584 24.0313 17.6277 23.778 17.3464L23.582 17.1277H23.5806Z" fill="black"/>
</svg>
