<svg width="28" height="27" viewBox="0 0 28 27" fill="none" xmlns="http://www.w3.org/2000/svg">
<path d="M23.3991 4.04707C22.1767 2.81231 20.7207 1.8333 19.1159 1.16714C17.5112 0.500984 15.7899 0.161019 14.0524 0.167072C6.77242 0.167072 0.839089 6.1004 0.839089 13.3804C0.839089 15.7137 1.45242 17.9804 2.59909 19.9804L0.732422 26.8337L7.73242 24.9937C9.66575 26.0471 11.8391 26.6071 14.0524 26.6071C21.3324 26.6071 27.2658 20.6737 27.2658 13.3937C27.2658 9.8604 25.8924 6.5404 23.3991 4.04707ZM14.0524 24.3671C12.0791 24.3671 10.1458 23.8337 8.45242 22.8337L8.05242 22.5937L3.89242 23.6871L4.99909 19.6337L4.73242 19.2204C3.63608 17.4697 3.05394 15.4461 3.05242 13.3804C3.05242 7.32707 7.98575 2.39374 14.0391 2.39374C16.9724 2.39374 19.7324 3.54041 21.7991 5.62041C22.8224 6.63902 23.6334 7.85062 24.1849 9.18497C24.7365 10.5193 25.0178 11.9499 25.0124 13.3937C25.0391 19.4471 20.1058 24.3671 14.0524 24.3671ZM20.0791 16.1537C19.7458 15.9937 18.1191 15.1937 17.8258 15.0737C17.5191 14.9671 17.3058 14.9137 17.0791 15.2337C16.8524 15.5671 16.2258 16.3137 16.0391 16.5271C15.8524 16.7537 15.6524 16.7804 15.3191 16.6071C14.9858 16.4471 13.9191 16.0871 12.6658 14.9671C11.6791 14.0871 11.0258 13.0071 10.8258 12.6737C10.6391 12.3404 10.7991 12.1671 10.9724 11.9937C11.1191 11.8471 11.3058 11.6071 11.4658 11.4204C11.6258 11.2337 11.6924 11.0871 11.7991 10.8737C11.9058 10.6471 11.8524 10.4604 11.7724 10.3004C11.6924 10.1404 11.0258 8.51374 10.7591 7.84707C10.4924 7.20707 10.2124 7.28707 10.0124 7.27374H9.37242C9.14575 7.27374 8.79909 7.35374 8.49242 7.68707C8.19909 8.0204 7.34576 8.82041 7.34576 10.4471C7.34576 12.0737 8.53242 13.6471 8.69242 13.8604C8.85242 14.0871 11.0258 17.4204 14.3324 18.8471C15.1191 19.1937 15.7324 19.3937 16.2124 19.5404C16.9991 19.7937 17.7191 19.7537 18.2924 19.6737C18.9324 19.5804 20.2524 18.8737 20.5191 18.1004C20.7991 17.3271 20.7991 16.6737 20.7058 16.5271C20.6124 16.3804 20.4124 16.3137 20.0791 16.1537Z" fill="black"/>
</svg>
